<svg width="25" height="23" viewBox="0 0 25 23" fill="none" xmlns="http://www.w3.org/2000/svg">
<g clip-path="url(#clip0_433_2990)">
<g clip-path="url(#clip1_433_2990)">
<path d="M9.19336 10.2251V4.90253C9.19336 3.83802 9.82979 1.70898 12.3755 1.70898C14.9212 1.70898 15.5576 3.83802 15.5576 4.90253V10.2251" stroke="#1D2088" stroke-width="1.5"/>
<path d="M22.5528 14.1973C20.5283 19.0916 16.6664 22.2503 12.3751 22.2503C8.08382 22.2503 4.22191 19.0916 2.19746 14.1973C1.47607 12.4532 1.90674 10.8019 3.02236 9.54842C4.15485 8.27603 5.99282 7.42773 8.00013 7.42773H16.7501C18.7574 7.42773 20.5954 8.27603 21.7279 9.54842C22.8435 10.8019 23.2742 12.4532 22.5528 14.1973Z" stroke="#1D2088" stroke-width="1.5"/>
</g>
</g>
<defs>
<clipPath id="clip0_433_2990">
<rect width="25" height="23" fill="white"/>
</clipPath>
<clipPath id="clip1_433_2990">
<rect width="25" height="23" fill="white"/>
</clipPath>
</defs>
</svg>
