<svg width="25" height="25" viewBox="0 0 25 25" fill="none" xmlns="http://www.w3.org/2000/svg">
<g clip-path="url(#clip0_468_5693)">
<path d="M12.5 24.2188C18.9721 24.2188 24.2188 18.9721 24.2188 12.5C24.2188 6.02791 18.9721 0.78125 12.5 0.78125C6.02791 0.78125 0.78125 6.02791 0.78125 12.5C0.78125 18.9721 6.02791 24.2188 12.5 24.2188Z" stroke="#151789" stroke-width="1.8" stroke-miterlimit="10"/>
<path d="M18.6719 12.5C18.6719 18.9844 15.8594 24.2188 12.5 24.2188C9.0625 24.2188 6.32812 18.9844 6.32812 12.5C6.32812 6.01562 9.14062 0.78125 12.5 0.78125C15.9375 0.78125 18.6719 6.01562 18.6719 12.5Z" stroke="#151789" stroke-width="1.8" stroke-miterlimit="10"/>
<path d="M1.5625 8.35864H23.4375" stroke="#151789" stroke-width="1.8" stroke-miterlimit="10"/>
<path d="M23.4375 16.6414H1.5625" stroke="#151789" stroke-width="1.8" stroke-miterlimit="10"/>
<path d="M12.5 24.2188V0.78125" stroke="#151789" stroke-width="1.8" stroke-miterlimit="10"/>
</g>
<defs>
<clipPath id="clip0_468_5693">
<rect width="25" height="25" fill="white"/>
</clipPath>
</defs>
</svg>
