<svg width="25" height="25" viewBox="0 0 25 25" fill="none" xmlns="http://www.w3.org/2000/svg">
<g clip-path="url(#clip0_468_5702)">
<path d="M20.7754 10.4167C20.7754 15.7554 16.2982 20.0833 10.7754 20.0833C5.25255 20.0833 0.775391 15.7554 0.775391 10.4167C0.775391 5.07792 5.25255 0.75 10.7754 0.75C16.2982 0.75 20.7754 5.07792 20.7754 10.4167Z" stroke="#151789" stroke-width="1.8"/>
<path d="M24.2519 21.4312L19.3753 16.7171C18.8703 16.229 18.0516 16.229 17.5466 16.7171C17.0416 17.2053 17.0416 17.9967 17.5466 18.4849L22.4232 23.1989C22.9282 23.6871 23.7469 23.6871 24.2519 23.1989C24.7569 22.7108 24.7569 21.9193 24.2519 21.4312Z" fill="#151789"/>
</g>
<defs>
<clipPath id="clip0_468_5702">
<rect width="25" height="25" fill="white"/>
</clipPath>
</defs>
</svg>
