<svg width="25" height="25" viewBox="0 0 25 25" fill="none" xmlns="http://www.w3.org/2000/svg">
<g clip-path="url(#clip0_468_5699)">
<path d="M16.9354 5.24188C16.9354 7.69153 14.9496 9.67736 12.4999 9.67736C10.0503 9.67736 8.06445 7.69153 8.06445 5.24188C8.06445 2.79223 10.0503 0.806396 12.4999 0.806396C14.9496 0.806396 16.9354 2.79223 16.9354 5.24188Z" stroke="#151789" stroke-width="1.8"/>
<path d="M1.29567 21.2449C2.83027 16.3437 7.27769 12.8226 12.4996 12.8226C17.7216 12.8226 22.169 16.3437 23.7036 21.2449C23.9513 22.0363 23.7365 22.7655 23.2297 23.3224C22.7112 23.892 21.8856 24.2742 20.9674 24.2742L4.03188 24.2742C3.11358 24.2742 2.28801 23.892 1.76962 23.3224C1.26277 22.7655 1.04793 22.0363 1.29567 21.2449Z" stroke="#151789" stroke-width="1.8"/>
</g>
<defs>
<clipPath id="clip0_468_5699">
<rect width="25" height="25" fill="white"/>
</clipPath>
</defs>
</svg>
